# xmcd CD database file
#
# Track frame offsets:
#	150
#	17211
#	30916
#	47333
#	61140
#	78158
#	87849
#	102215
#	120592
#	131294
#
# Disc length: 2229 seconds
#
# Revision: 0
# Processed by: cddbd v1.4PL0 Copyright (c) Steve Scherf et al.
# Submitted via: CDex 1.40Release
#
DISCID=6608b30a
DTITLE=SixFtHick - The Lap of Luxury
DYEAR=2002
DGENRE=Blues
TTITLE0=2 Dollar G-String
TTITLE1=I Was Just Cleaning It And It Went Off
TTITLE2=Red Carpet Treatment
TTITLE3=Break-up Break Down
TTITLE4=I Work Better In The Dark
TTITLE5=Smokin' In Bed
TTITLE6=We're All Gonna Die
TTITLE7=Last Lullaby
TTITLE8=When Only The Best Will Do
TTITLE9=I Got The Swamp
EXTD=YEAR: 2002 ID3G: 0
EXTT0=
EXTT1=
EXTT2=
EXTT3=
EXTT4=
EXTT5=
EXTT6=
EXTT7=
EXTT8=
EXTT9=
PLAYORDER=
